<?xml version="1.0" encoding="utf-8"?>
<!-- Generator: Adobe Illustrator 16.0.0, SVG Export Plug-In . SVG Version: 6.00 Build 0)  -->
<!DOCTYPE svg PUBLIC "-//W3C//DTD SVG 1.1//EN" "http://www.w3.org/Graphics/SVG/1.1/DTD/svg11.dtd">
<svg version="1.1" id="Layer_1" xmlns="http://www.w3.org/2000/svg" xmlns:xlink="http://www.w3.org/1999/xlink" x="0px" y="0px"
	 width="32px" height="32px" viewBox="0 0 32 32" enable-background="new 0 0 32 32" xml:space="preserve">
<path d="M30.789,3.044c-1.184,0.788-2.76,1.378-4.139,1.575c-1.18-1.182-2.952-1.969-4.726-1.969c-3.545,0-6.5,2.954-6.5,6.5
	c0,0.393,0,0.984,0.197,1.378c-5.513-0.197-10.24-2.757-13.391-6.696C1.837,4.817,1.443,5.999,1.443,7.181
	c0,2.166,1.182,4.135,2.955,5.317c-1.181,0-2.166-0.394-2.955-0.788c0,3.151,2.167,5.712,5.121,6.302
	c-0.59,0.195-1.182,0.195-1.772,0.195c-0.394,0-0.788-0.195-1.182-0.195c0.984,2.561,3.349,4.529,6.105,4.529
	C7.548,24.314,4.594,25.3,1.64,25.3c-0.591,0-0.986,0-1.576,0c2.757,1.97,6.105,2.954,9.847,2.954
	c11.817,0,18.317-9.847,18.317-18.317c0-0.196,0-0.59,0-0.787c1.182-0.789,2.362-1.969,3.545-3.546
	c-1.183,0.395-2.363,0.788-3.744,0.985C29.215,5.802,30.395,4.619,30.789,3.044z"/>
</svg>
