<?xml version="1.0" encoding="utf-8"?>
<!-- Generator: Adobe Illustrator 16.0.0, SVG Export Plug-In . SVG Version: 6.00 Build 0)  -->
<!DOCTYPE svg PUBLIC "-//W3C//DTD SVG 1.1//EN" "http://www.w3.org/Graphics/SVG/1.1/DTD/svg11.dtd">
<svg version="1.1" id="Layer_1" xmlns="http://www.w3.org/2000/svg" xmlns:xlink="http://www.w3.org/1999/xlink" x="0px" y="0px"
	 width="32px" height="32px" viewBox="0 0 32 32" enable-background="new 0 0 32 32" xml:space="preserve">
<path d="M16,2C8.3,2,2,8.3,2,16c0,5.95,3.675,11.025,8.925,13.037c-0.087-1.137-0.262-2.8,0.088-4.024c0.262-1.05,1.662-7,1.662-7
	s-0.438-0.875-0.438-2.1c0-1.925,1.138-3.413,2.538-3.413c1.225,0,1.75,0.875,1.75,2.013c0,1.225-0.788,2.975-1.138,4.638
	c-0.35,1.399,0.7,2.537,2.1,2.537c2.45,0,4.375-2.625,4.375-6.388c0-3.325-2.45-5.688-5.862-5.688c-4.025,0-6.3,2.975-6.3,6.038
	c0,1.225,0.438,2.45,1.05,3.238c0.087,0.175,0.087,0.263,0.087,0.438c-0.087,0.438-0.35,1.399-0.35,1.575
	c-0.175,0.262-0.35,0.35-0.612,0.175c-1.75-0.788-2.8-3.413-2.8-5.425c0-4.375,3.237-8.487,9.275-8.487c4.9,0,8.663,3.5,8.663,8.05
	c0,4.813-3.062,8.75-7.263,8.75c-1.4,0-2.712-0.7-3.237-1.575c0,0-0.7,2.712-0.875,3.325c-0.35,1.225-1.138,2.712-1.75,3.675
	C13.2,29.825,14.6,30,16,30c7.7,0,14-6.3,14-14S23.7,2,16,2z"/>
</svg>
